<svg width="56" height="56" viewBox="0 0 56 56" fill="none" xmlns="http://www.w3.org/2000/svg">
<g clip-path="url(#clip0_34_369)">
<path d="M15.5871 8.01703H43.2413V10.3984H15.5871V8.01703Z" fill="#D9D9D9"/>
<path d="M44.7776 12.3188H15.372C14.98 12.3132 14.5931 12.2283 14.2347 12.0692C13.8763 11.9101 13.5539 11.68 13.2869 11.3928C13.0199 11.1057 12.8138 10.7675 12.681 10.3985C12.5482 10.0296 12.4916 9.63755 12.5144 9.24611C12.5125 8.46712 12.8066 7.71647 13.3371 7.14604C13.8676 6.5756 14.5949 6.22795 15.372 6.17342H44.7776C45.1851 6.17342 45.5759 6.01156 45.864 5.72344C46.1521 5.43532 46.314 5.04455 46.314 4.63708C46.314 4.22962 46.1521 3.83884 45.864 3.55072C45.5759 3.2626 45.1851 3.10074 44.7776 3.10074H15.372C13.7797 3.1565 12.2714 3.8285 11.165 4.97499C10.0586 6.12148 9.44077 7.65285 9.44175 9.24611C9.42689 9.49683 9.42689 9.7482 9.44175 9.99892C9.42695 10.1214 9.42695 10.2452 9.44175 10.3676V46.1183C9.44077 47.7116 10.0586 49.243 11.165 50.3895C12.2714 51.536 13.7797 52.208 15.372 52.2637H44.7776C45.1851 52.2637 45.5759 52.1019 45.864 51.8137C46.1521 51.5256 46.314 51.1348 46.314 50.7274V13.9627C46.3149 13.5447 46.1565 13.1421 45.8711 12.8367C45.5857 12.5313 45.1947 12.3461 44.7776 12.3188Z" fill="#D9D9D9"/>
</g>
<defs>
<clipPath id="clip0_34_369">
<rect width="55.3083" height="55.3083" fill="white" transform="translate(0.223694 0.0280457)"/>
</clipPath>
</defs>
</svg>
