<svg width="64" height="63" viewBox="0 0 64 63" fill="none" xmlns="http://www.w3.org/2000/svg">
<path d="M54.3934 42.8081C51.5881 39.7686 48.1837 37.3429 44.3948 35.6839C40.6059 34.0248 36.5145 33.1683 32.3783 33.1683C28.2421 33.1683 24.1506 34.0248 20.3617 35.6839C16.5728 37.3429 13.1685 39.7686 10.3632 42.8081C9.93006 43.287 9.68779 43.9083 9.6823 44.5539V55.029C9.69148 55.7175 9.97143 56.3746 10.4616 56.8582C10.9517 57.3418 11.6125 57.6129 12.3011 57.6129H52.4555C53.15 57.6129 53.8161 57.337 54.3072 56.8458C54.7984 56.3547 55.0743 55.6886 55.0743 54.9941V44.519C55.0603 43.8854 54.8186 43.278 54.3934 42.8081Z" fill="#61677A"/>
<path d="M32.3783 29.6793C39.1277 29.6793 44.5992 24.2079 44.5992 17.4584C44.5992 10.709 39.1277 5.23752 32.3783 5.23752C25.6289 5.23752 20.1574 10.709 20.1574 17.4584C20.1574 24.2079 25.6289 29.6793 32.3783 29.6793Z" fill="#61677A"/>
</svg>
