<svg width="64" height="63" viewBox="0 0 64 63" fill="none" xmlns="http://www.w3.org/2000/svg">
    <path fill-rule="evenodd" clip-rule="evenodd" d="M29.5598 6.46574C30.2041 5.95049 30.9943 5.65119 31.8183 5.6103C32.6423 5.5694 33.4583 5.78899 34.1505 6.23791L34.4674 6.46574L45.7595 15.5005C46.3104 15.9408 46.7668 16.4879 47.1011 17.1089C47.4355 17.7299 47.6409 18.412 47.7052 19.1144L47.7262 19.5884V49.7566H50.3449V27.4971C50.3448 27.1906 50.4522 26.8938 50.6484 26.6584C50.8446 26.4229 51.1172 26.2638 51.4186 26.2086L51.6543 26.1877H52.9637C54.2851 26.1873 55.5578 26.6863 56.5267 27.5848C57.4956 28.4833 58.0891 29.7147 58.1882 31.0324L58.2012 31.4252V52.1135C58.201 52.8228 57.9389 53.5072 57.4654 54.0354C56.9918 54.5635 56.34 54.8984 55.6349 54.9758L55.3206 54.9941H8.70656C7.99672 54.9945 7.31174 54.7327 6.78302 54.2591C6.2543 53.7855 5.91906 53.1333 5.84163 52.4277L5.82591 52.1135V31.4252C5.82549 30.1038 6.32454 28.8311 7.22302 27.8622C8.12149 26.8934 9.35298 26.2999 10.6706 26.2008L11.0634 26.1877H12.3728C12.6793 26.1876 12.9761 26.295 13.2115 26.4912C13.4469 26.6874 13.6061 26.9599 13.6613 27.2614L13.6822 27.4971V49.7566H16.301V19.5884C16.3009 18.8831 16.4433 18.1851 16.7196 17.5362C16.9959 16.8873 17.4004 16.3009 17.9089 15.8121L18.2677 15.4979L29.5598 6.46312V6.46574ZM32.0136 23.5663C30.6245 23.5663 29.2923 24.1181 28.3101 25.1003C27.3279 26.0826 26.776 27.4147 26.776 28.8038C26.776 30.1929 27.3279 31.5251 28.3101 32.5073C29.2923 33.4895 30.6245 34.0414 32.0136 34.0414C33.4027 34.0414 34.7348 33.4895 35.7171 32.5073C36.6993 31.5251 37.2511 30.1929 37.2511 28.8038C37.2511 27.4147 36.6993 26.0826 35.7171 25.1003C34.7348 24.1181 33.4027 23.5663 32.0136 23.5663Z" fill="#D9D9D9"/>
</svg>
